<svg xmlns="http://www.w3.org/2000/svg" version="1.1" viewBox="-5.0 -10.0 110.0 135.0">
  <path
    d="m41.762 1.043h16.48c1.5859 0 2.8672 1.2852 2.8672 2.8672v34.977h34.977c1.5859 0 2.8672 1.2852 2.8672 2.8672v16.48c0 1.5859-1.2852 2.8672-2.8672 2.8672h-34.977v34.977c0 1.5859-1.2852 2.8672-2.8672 2.8672h-16.48c-1.5859 0-2.8672-1.2852-2.8672-2.8672v-34.977h-34.977c-1.5859 0-2.8672-1.2852-2.8672-2.8672v-16.48c0-1.5859 1.2852-2.8672 2.8672-2.8672h34.977v-34.977c0-1.5859 1.2852-2.8672 2.8672-2.8672z" />
</svg>