<svg xmlns="http://www.w3.org/2000/svg" xmlns:xlink="http://www.w3.org/1999/xlink"
  viewBox="0 0 19 15" version="1.1" x="0px" y="0px">
  <title>speed throttle Dashboard - Monitor - Speed - Measure Copy 2</title>
  <desc>Created with Sketch.</desc>
  <g stroke="none" stroke-width="1" fill="none" fill-rule="evenodd">
    <g transform="translate(-5676.000000, -348.000000)" fill="#0058bc" fill-rule="nonzero">
      <path
        d="M5692.62873,351.220401 L5690.21511,352.620071 C5688.99426,351.440201 5687.3319,350.714286 5685.5,350.714286 C5681.75235,350.714286 5678.71429,353.752353 5678.71429,357.5 L5676,357.5 C5676,352.253295 5680.25329,348 5685.5,348 C5688.33942,348 5690.8879,349.245698 5692.62873,351.220401 Z M5693.63168,352.585485 C5694.46793,353.966202 5694.96245,355.576975 5694.99795,357.300525 C5694.99931,357.366852 5695,357.433346 5695,357.5 L5692.28571,357.5 C5692.28533,357.431048 5692.28475,357.379404 5692.28398,357.345068 C5692.26028,356.287174 5691.99448,355.289022 5691.53979,354.403838 L5693.63168,352.585485 Z M5686.9176,357.62239 C5686.99122,358.248208 5686.7411,358.893814 5686.19535,359.29041 C5685.38994,359.875577 5684.26266,359.696981 5683.67753,358.891626 C5683.09241,358.086271 5683.2709,356.958971 5684.07632,356.373804 C5684.62213,355.977245 5685.31341,355.938844 5685.88538,356.202407 L5692.9232,351.737888 C5693.082,351.644367 5693.28356,351.688458 5693.38937,351.834093 C5693.3962,351.843492 5693.4019,351.852507 5693.4079,351.862731 C5693.49608,352.01105 5693.46254,352.198211 5693.33749,352.308108 L5686.9176,357.62239 Z" />
    </g>
  </g>
  <text x="0" y="27" fill="#0058bc" font-size="5px" font-weight="bold"
    font-family="'Helvetica Neue', Helvetica, Arial-Unicode, Arial, Sans-serif">Created by Silviu
    Ojog</text>
  <text x="0" y="32" fill="#0058bc" font-size="5px" font-weight="bold"
    font-family="'Helvetica Neue', Helvetica, Arial-Unicode, Arial, Sans-serif">from the Noun
    Project</text>
</svg>