<svg xmlns="http://www.w3.org/2000/svg" version="1.1" viewBox="-5.0 -10.0 110.0 135.0">
  <path
    d="m65.809 50 28.531-28.531c0.87109-0.87109 0.87109-2.2891 0-3.1602l-12.648-12.648c-0.87109-0.87109-2.2891-0.87109-3.1602 0l-28.531 28.531-28.531-28.531c-0.87109-0.87109-2.2891-0.87109-3.1602 0l-12.648 12.648c-0.87109 0.87109-0.87109 2.2891 0 3.1602l28.531 28.531-28.531 28.531c-0.87109 0.87109-0.87109 2.2891 0 3.1602l12.648 12.648c0.87109 0.87109 2.2891 0.87109 3.1602 0l28.531-28.531 28.531 28.531c0.87109 0.87109 2.2891 0.87109 3.1602 0l12.648-12.648c0.87109-0.87109 0.87109-2.2891 0-3.1602z" />
</svg>